<svg width="18" height="18" viewBox="0 0 18 18" fill="none" xmlns="http://www.w3.org/2000/svg">
<path d="M3.79166 11.1233C2.15413 11.8226 1 13.4824 1 15.4146C1 16.2885 1.69287 17 2.54415 17H15.4546C16.3059 17 17 16.2885 17 15.4146C17 13.2757 15.5853 11.4708 13.6667 10.9329M8.99985 11.3358C11.2811 11.3358 13.1381 9.01777 13.1381 6.16806C13.1381 2.35621 11.1563 1 8.99985 1C7.87073 1 6.81676 1.55438 6.03222 2.55977C5.44863 3.30913 5.06763 4.24392 4.92501 5.25601C4.88298 5.55424 4.86166 5.85918 4.86194 6.16806C4.86225 9.01777 6.71761 11.3358 8.99985 11.3358Z" stroke="#B80101" stroke-linecap="round" stroke-linejoin="round"/>
</svg>
