<svg width="23" height="24" viewBox="0 0 23 24" fill="none" xmlns="http://www.w3.org/2000/svg">
<path d="M8.52071 1.6V3.2H13.64V1.6H8.52071ZM8.52071 0H13.64C14.0919 0 14.5254 0.168571 14.845 0.468629C15.1646 0.768687 15.3441 1.17565 15.3441 1.6V3.2C15.3441 3.41012 15.3 3.61817 15.2144 3.81229C15.1287 4.00641 15.0032 4.1828 14.845 4.33137C14.6867 4.47994 14.4989 4.5978 14.2921 4.67821C14.0853 4.75861 13.8637 4.8 13.64 4.8H8.52071C8.29692 4.8 8.07532 4.75861 7.86856 4.67821C7.66181 4.5978 7.47394 4.47994 7.3157 4.33137C7.15746 4.1828 7.03193 4.00641 6.94629 3.81229C6.86065 3.61817 6.81657 3.41012 6.81657 3.2V1.6C6.81657 1.17565 6.99611 0.768687 7.3157 0.468629C7.63529 0.168571 8.06874 0 8.52071 0ZM1.70414 4.8V6.4H20.4497V4.8H1.70414ZM1.70414 3.2H20.4497C20.9017 3.2 21.3351 3.36857 21.6547 3.66863C21.9743 3.96869 22.1538 4.37565 22.1538 4.8V6.4C22.1538 6.61012 22.1098 6.81817 22.0241 7.01229C21.9385 7.20641 21.813 7.3828 21.6547 7.53137C21.4965 7.67994 21.3086 7.7978 21.1019 7.87821C20.8951 7.95861 20.6735 8 20.4497 8H1.70414C1.48035 8 1.25875 7.95861 1.05199 7.87821C0.845238 7.7978 0.657376 7.67994 0.499132 7.53137C0.340888 7.3828 0.215361 7.20641 0.12972 7.01229C0.0440787 6.81817 -5.6822e-09 6.61012 0 6.4V4.8C0 4.58989 0.0440787 4.38183 0.12972 4.18771C0.215361 3.99359 0.340888 3.8172 0.499132 3.66863C0.657376 3.52005 0.845238 3.4022 1.05199 3.32179C1.25875 3.24138 1.48035 3.2 1.70414 3.2ZM3.40828 8V20.8C3.40828 21.2243 3.58783 21.6313 3.90742 21.9314C4.227 22.2314 4.66046 22.4 5.11243 22.4H17.0414C17.2652 22.4 17.4868 22.3586 17.6936 22.2782C17.9003 22.1978 18.0882 22.0799 18.2464 21.9314C18.4047 21.7828 18.5302 21.6064 18.6158 21.4123C18.7015 21.2182 18.7456 21.0101 18.7456 20.8V8H3.40828ZM3.40828 6.4H18.7456C18.9694 6.4 19.191 6.44138 19.3977 6.52179C19.6045 6.6022 19.7923 6.72006 19.9506 6.86863C20.1088 7.0172 20.2343 7.19359 20.32 7.38771C20.4056 7.58183 20.4497 7.78989 20.4497 8V20.8C20.4497 21.6487 20.0906 22.4626 19.4514 23.0627C18.8123 23.6629 17.9454 24 17.0414 24H5.11243C4.20849 24 3.34158 23.6629 2.7024 23.0627C2.06323 22.4626 1.70414 21.6487 1.70414 20.8V8C1.70414 7.78989 1.74822 7.58183 1.83386 7.38771C1.9195 7.19359 2.04503 7.0172 2.20327 6.86863C2.36152 6.72006 2.54938 6.6022 2.75614 6.52179C2.96289 6.44138 3.18449 6.4 3.40828 6.4ZM7.66864 9.6C7.89462 9.6 8.11135 9.68428 8.27114 9.83431C8.43094 9.98434 8.52071 10.1878 8.52071 10.4V18.4C8.52066 18.6121 8.43087 18.8156 8.27108 18.9656C8.11129 19.1156 7.89459 19.1998 7.66864 19.1998C7.44269 19.1998 7.22599 19.1156 7.0662 18.9656C6.90641 18.8156 6.81662 18.6121 6.81657 18.4V10.4C6.81657 10.2949 6.83861 10.1909 6.88143 10.0939C6.92425 9.99679 6.98701 9.9086 7.06613 9.83431C7.14526 9.76003 7.23919 9.7011 7.34257 9.6609C7.44594 9.62069 7.55674 9.6 7.66864 9.6ZM11.0769 9.6C11.3029 9.6 11.5196 9.68428 11.6794 9.83431C11.8392 9.98434 11.929 10.1878 11.929 10.4V18.4C11.9289 18.6121 11.8391 18.8156 11.6794 18.9656C11.5196 19.1156 11.3029 19.1998 11.0769 19.1998C10.851 19.1998 10.6343 19.1156 10.4745 18.9656C10.3147 18.8156 10.2249 18.6121 10.2249 18.4V10.4C10.2249 10.1878 10.3146 9.98434 10.4744 9.83431C10.6342 9.68428 10.8509 9.6 11.0769 9.6ZM14.4852 9.6C14.7112 9.6 14.9279 9.68428 15.0877 9.83431C15.2475 9.98434 15.3373 10.1878 15.3373 10.4V18.4C15.3373 18.6122 15.2475 18.8157 15.0877 18.9657C14.9279 19.1157 14.7112 19.2 14.4852 19.2C14.2592 19.2 14.0425 19.1157 13.8827 18.9657C13.7229 18.8157 13.6331 18.6122 13.6331 18.4V10.4C13.6331 10.2949 13.6552 10.1909 13.698 10.0939C13.7408 9.99679 13.8036 9.9086 13.8827 9.83431C13.9618 9.76003 14.0558 9.7011 14.1591 9.6609C14.2625 9.62069 14.3733 9.6 14.4852 9.6Z" fill="#6A6A6A"/>
</svg>
