<svg width="27" height="18" viewBox="0 0 27 18" fill="none" xmlns="http://www.w3.org/2000/svg">
<path d="M24.6056 0H2.39433C1.0741 0 0 0.962978 0 2.14661V4.488V8.03617V14.92C0 16.1037 1.0741 17.0667 2.39433 17.0667H24.6056C25.9259 17.0667 27 16.1037 27 14.92V8.03617V4.488V2.14661C26.9984 0.962978 25.9259 0 24.6056 0ZM2.39433 0.886703H24.6056C25.3805 0.886703 26.0109 1.45196 26.0109 2.14661V4.04533H0.990546V2.14661C0.990546 1.45196 1.62103 0.886703 2.39433 0.886703ZM26.0094 7.5935H0.990546V4.93203H26.0094V7.5935ZM24.6056 16.1799H2.39433C1.61951 16.1799 0.989027 15.6147 0.989027 14.92V8.48021H26.0079V14.92C26.0094 15.6147 25.3789 16.1799 24.6056 16.1799Z" fill="#C4C4C4"/>
<path d="M7.42606 12.8H3.57394C3.25704 12.8 3 13.0389 3 13.3334C3 13.6278 3.25704 13.8667 3.57394 13.8667H7.42606C7.74296 13.8667 8 13.6278 8 13.3334C8 13.0389 7.74296 12.8 7.42606 12.8Z" fill="#C4C4C4"/>
</svg>
