<svg width="42" height="29" viewBox="0 0 42 29" fill="none" xmlns="http://www.w3.org/2000/svg">
<path d="M38.2755 0H3.72451C1.67083 0 0 1.62503 0 3.62241V7.5735V13.561V25.1776C0 27.175 1.67083 28.8 3.72451 28.8H38.2755C40.3292 28.8 42 27.175 42 25.1776V13.561V7.5735V3.62241C41.9976 1.62503 40.3292 0 38.2755 0ZM3.72451 1.49631H38.2755C39.4808 1.49631 40.4615 2.45018 40.4615 3.62241V6.82649H1.54085V3.62241C1.54085 2.45018 2.52161 1.49631 3.72451 1.49631ZM40.4591 12.814H1.54085V8.32281H40.4591V12.814ZM38.2755 27.3037H3.72451C2.51924 27.3037 1.53849 26.3498 1.53849 25.1776V14.3104H40.4568V25.1776C40.4591 26.3498 39.4784 27.3037 38.2755 27.3037Z" fill="#6A6A6A"/>
<path d="M11.1965 21.3333H5.80352C5.35986 21.3333 5 21.811 5 22.3999C5 22.9889 5.35986 23.4666 5.80352 23.4666H11.1965C11.6401 23.4666 12 22.9889 12 22.3999C12 21.811 11.6401 21.3333 11.1965 21.3333Z" fill="#6A6A6A"/>
<path d="M18.285 19.2H5.71502C5.32023 19.2 5 19.4388 5 19.7333C5 20.0278 5.32023 20.2666 5.71502 20.2666H18.285C18.6798 20.2666 19 20.0278 19 19.7333C19 19.4388 18.6798 19.2 18.285 19.2Z" fill="#6A6A6A"/>
</svg>
