<svg width="27" height="16" viewBox="0 0 27 16" fill="none" xmlns="http://www.w3.org/2000/svg">
<path d="M26.1 0.888887V15.1111H0.899999V0.888887H26.1ZM26.1 0H0.899999C0.661304 0 0.432386 0.0936505 0.263604 0.260349C0.094821 0.427048 0 0.65314 0 0.888887V15.1111C0 15.3468 0.094821 15.5729 0.263604 15.7396C0.432386 15.9063 0.661304 16 0.899999 16H26.1C26.3387 16 26.5676 15.9063 26.7364 15.7396C26.9051 15.5729 27 15.3468 27 15.1111V0.888887C27 0.65314 26.9051 0.427048 26.7364 0.260349C26.5676 0.0936505 26.3387 0 26.1 0Z" fill="#C4C4C4"/>
<path d="M21.5735 2.97139C21.7327 3.55075 22.0522 4.07935 22.4991 4.50268C22.9459 4.92601 23.5038 5.22873 24.1154 5.37962V10.6203C23.5038 10.7712 22.9459 11.0739 22.4991 11.4972C22.0522 11.9206 21.7327 12.4492 21.5735 13.0285H5.42652C5.26725 12.4492 4.94773 11.9206 4.5009 11.4972C4.05407 11.0739 3.49612 10.7712 2.88461 10.6203V5.37962C3.49612 5.22873 4.05407 4.92601 4.5009 4.50268C4.94773 4.07935 5.26725 3.55075 5.42652 2.97139H21.5735ZM22.3461 2.1333H4.65384C4.65384 2.80013 4.37424 3.43965 3.87655 3.91117C3.37886 4.38268 2.70384 4.64758 2 4.64758V11.3523C2.70384 11.3523 3.37886 11.6172 3.87655 12.0887C4.37424 12.5603 4.65384 13.1998 4.65384 13.8666H22.3461C22.3461 13.1998 22.6257 12.5603 23.1234 12.0887C23.6211 11.6172 24.2961 11.3523 25 11.3523V4.64758C24.2961 4.64758 23.6211 4.38268 23.1234 3.91117C22.6257 3.43965 22.3461 2.80013 22.3461 2.1333Z" fill="#C4C4C4"/>
</svg>
