<svg width="35" height="24" viewBox="0 0 35 24" fill="none" xmlns="http://www.w3.org/2000/svg">
<path d="M33.8338 1.33333V22.6667H1.16715V1.33333H33.8338ZM33.8338 0H1.16715C0.857736 0 0.560989 0.140476 0.342197 0.390525C0.123405 0.640573 0.000488281 0.979711 0.000488281 1.33333V22.6667C0.000488281 23.0203 0.123405 23.3594 0.342197 23.6095C0.560989 23.8595 0.857736 24 1.16715 24H33.8338C34.1432 24 34.44 23.8595 34.6588 23.6095C34.8776 23.3594 35.0005 23.0203 35.0005 22.6667V1.33333C35.0005 0.979711 34.8776 0.640573 34.6588 0.390525C34.44 0.140476 34.1432 0 33.8338 0Z" fill="white"/>
<path d="M27.5311 4.28571C27.7388 5.17449 28.1556 5.98543 28.7384 6.63485C29.3213 7.28428 30.049 7.74868 30.8466 7.98016V16.0198C30.049 16.2513 29.3213 16.7157 28.7384 17.3651C28.1556 18.0146 27.7388 18.8255 27.5311 19.7143H6.46986C6.26213 18.8255 5.84535 18.0146 5.26253 17.3651C4.67972 16.7157 3.95196 16.2513 3.15433 16.0198V7.98016C3.95196 7.74868 4.67972 7.28428 5.26253 6.63485C5.84535 5.98543 6.26213 5.17449 6.46986 4.28571H27.5311ZM28.5389 3H5.46203C5.46203 4.02298 5.09733 5.00406 4.44817 5.72741C3.799 6.45077 2.91855 6.85714 2.00049 6.85714V17.1429C2.91855 17.1429 3.799 17.5492 4.44817 18.2726C5.09733 18.9959 5.46203 19.977 5.46203 21H28.5389C28.5389 19.977 28.9036 18.9959 29.5528 18.2726C30.202 17.5492 31.0824 17.1429 32.0005 17.1429V6.85714C31.0824 6.85714 30.202 6.45077 29.5528 5.72741C28.9036 5.00406 28.5389 4.02298 28.5389 3Z" fill="white"/>
</svg>
