<svg width="35" height="24" viewBox="0 0 35 24" fill="none" xmlns="http://www.w3.org/2000/svg">
<path d="M33.8333 1.33333V22.6667H1.16667V1.33333H33.8333ZM33.8333 0H1.16667C0.857247 0 0.560501 0.140476 0.341709 0.390525C0.122916 0.640573 0 0.979711 0 1.33333V22.6667C0 23.0203 0.122916 23.3594 0.341709 23.6095C0.560501 23.8595 0.857247 24 1.16667 24H33.8333C34.1427 24 34.4395 23.8595 34.6583 23.6095C34.8771 23.3594 35 23.0203 35 22.6667V1.33333C35 0.979711 34.8771 0.640573 34.6583 0.390525C34.4395 0.140476 34.1427 0 33.8333 0Z" fill="white"/>
<path d="M27.5306 4.28571C27.7384 5.17449 28.1551 5.98543 28.738 6.63485C29.3208 7.28428 30.0485 7.74868 30.8462 7.98016V16.0198C30.0485 16.2513 29.3208 16.7157 28.738 17.3651C28.1551 18.0146 27.7384 18.8255 27.5306 19.7143H6.46938C6.26164 18.8255 5.84487 18.0146 5.26205 17.3651C4.67923 16.7157 3.95147 16.2513 3.15385 16.0198V7.98016C3.95147 7.74868 4.67923 7.28428 5.26205 6.63485C5.84487 5.98543 6.26164 5.17449 6.46938 4.28571H27.5306ZM28.5385 3H5.46154C5.46154 4.02298 5.09684 5.00406 4.44768 5.72741C3.79851 6.45077 2.91806 6.85714 2 6.85714V17.1429C2.91806 17.1429 3.79851 17.5492 4.44768 18.2726C5.09684 18.9959 5.46154 19.977 5.46154 21H28.5385C28.5385 19.977 28.9032 18.9959 29.5523 18.2726C30.2015 17.5492 31.0819 17.1429 32 17.1429V6.85714C31.0819 6.85714 30.2015 6.45077 29.5523 5.72741C28.9032 5.00406 28.5385 4.02298 28.5385 3Z" fill="white"/>
<path d="M14.3053 9.712C14.2573 9.656 14.1653 9.588 14.0293 9.508C13.9013 9.428 13.7453 9.348 13.5613 9.268C13.3853 9.18 13.1893 9.104 12.9733 9.04C12.7573 8.968 12.5333 8.92 12.3013 8.896V10.972L12.6013 11.044C13.0173 11.156 13.3933 11.276 13.7293 11.404C14.0733 11.532 14.3613 11.692 14.5933 11.884C14.8333 12.076 15.0173 12.308 15.1453 12.58C15.2733 12.844 15.3373 13.172 15.3373 13.564C15.3373 14.004 15.2573 14.38 15.0973 14.692C14.9453 15.004 14.7333 15.26 14.4613 15.46C14.1973 15.66 13.8853 15.812 13.5253 15.916C13.1733 16.012 12.8013 16.068 12.4093 16.084V17.404H11.6893V16.072C11.1293 16.032 10.5813 15.92 10.0453 15.736C9.51727 15.544 9.03727 15.296 8.60527 14.992L9.33727 13.564C9.40127 13.628 9.50927 13.712 9.66127 13.816C9.82127 13.92 10.0093 14.024 10.2253 14.128C10.4493 14.224 10.6933 14.316 10.9573 14.404C11.2293 14.492 11.5093 14.552 11.7973 14.584V12.52C11.7253 12.504 11.6533 12.488 11.5813 12.472C11.5093 12.448 11.4373 12.424 11.3653 12.4C10.9573 12.288 10.6013 12.168 10.2973 12.04C10.0013 11.904 9.75327 11.748 9.55327 11.572C9.35327 11.388 9.20127 11.18 9.09727 10.948C9.00127 10.708 8.95327 10.424 8.95327 10.096C8.95327 9.696 9.02127 9.34 9.15727 9.028C9.30127 8.708 9.49327 8.436 9.73327 8.212C9.98127 7.988 10.2733 7.812 10.6093 7.684C10.9453 7.556 11.3053 7.476 11.6893 7.444V6.22H12.4093V7.432C12.9373 7.472 13.4213 7.58 13.8613 7.756C14.3093 7.932 14.7013 8.136 15.0373 8.368L14.3053 9.712ZM13.5733 13.732C13.5733 13.46 13.4613 13.248 13.2373 13.096C13.0133 12.944 12.7013 12.804 12.3013 12.676V14.608C13.1493 14.584 13.5733 14.292 13.5733 13.732ZM10.6573 9.832C10.6573 10.104 10.7493 10.312 10.9333 10.456C11.1253 10.592 11.4133 10.716 11.7973 10.828V8.884C11.0373 8.932 10.6573 9.248 10.6573 9.832Z" fill="white"/>
<path d="M22.2885 11.176H23.1645V12.22H21.7245L21.2925 13.024V13.384H23.1765V14.428H21.2925V16H19.6485V14.428H17.7885V13.384H19.6485V13L19.2405 12.22H17.8005V11.176H18.6885L16.5765 7.48H18.3645L20.4765 11.584L22.6005 7.48H24.4005L22.2885 11.176Z" fill="white"/>
</svg>
