<svg width="34" height="29" viewBox="0 0 34 29" fill="none" xmlns="http://www.w3.org/2000/svg">
<path d="M30.4583 28.8H3.54167C1.58808 28.8 0 26.7804 0 24.3V4.5C0 2.0196 1.58808 0 3.54167 0H30.4583C32.4119 0 34 2.0196 34 4.5V24.3C34 26.7804 32.4119 28.8 30.4583 28.8ZM3.54167 1.8C2.37008 1.8 1.41667 3.0114 1.41667 4.5V24.3C1.41667 25.7886 2.37008 27 3.54167 27H30.4583C31.6299 27 32.5833 25.7886 32.5833 24.3V4.5C32.5833 3.0114 31.6299 1.8 30.4583 1.8H3.54167Z" fill="#6A6A6A"/>
<path d="M9.33184 10.6666C9.2904 10.6666 9.24896 10.6616 9.20752 10.6517C8.45621 10.4753 4.67563 9.47203 4.08074 7.07286C3.91898 6.42398 3.92165 5.40741 4.84808 4.25441C5.77585 3.10307 6.59399 3.09974 7.11402 3.2994C9.04041 4.03978 9.84652 8.74496 9.98823 9.68C10.0297 9.9512 9.96016 10.2291 9.80375 10.422C9.67808 10.5801 9.5083 10.6666 9.33184 10.6666ZM6.58597 4.86335C6.36272 4.86335 6.09669 5.05303 5.79323 5.4307C5.42827 5.88658 5.28122 6.27424 5.35742 6.58204C5.56596 7.42391 7.06991 8.23584 8.43081 8.71335C8.0458 7.01961 7.39342 5.14786 6.71832 4.88831C6.67688 4.87167 6.63143 4.86335 6.58597 4.86335Z" fill="#6A6A6A"/>
<path d="M8.77965 10.6666C8.57378 10.6666 8.37571 10.5801 8.22755 10.4238C8.04507 10.2292 7.96553 9.95137 8.01388 9.68024C8.1792 8.74375 9.11965 4.04135 11.367 3.30114C11.9737 3.09821 12.9282 3.1032 14.0106 4.25593C15.0914 5.40865 15.0945 6.42498 14.9058 7.07371C14.2118 9.47231 9.8012 10.4753 8.9247 10.6517C8.87635 10.6616 8.828 10.6666 8.77965 10.6666ZM11.9831 4.86473C11.9301 4.86473 11.8786 4.87304 11.8271 4.88968C11.038 5.14916 10.2769 7.02048 9.83083 8.71381C11.4185 8.23475 13.1746 7.42302 13.4164 6.58301C13.5053 6.27528 13.3337 5.88771 12.9064 5.43194C12.5539 5.05602 12.2436 4.86473 11.9831 4.86473Z" fill="#6A6A6A"/>
<path d="M9 28.8C8.448 28.8 8 28.3968 8 27.9V0.900001C8 0.4032 8.448 0 9 0C9.552 0 10 0.4032 10 0.900001V27.9C10 28.3968 9.552 28.8 9 28.8Z" fill="#6A6A6A"/>
<path d="M33.2917 10.6667H0.708333C0.317333 10.6667 0 10.1888 0 9.60001C0 9.0112 0.317333 8.53333 0.708333 8.53333H33.2917C33.6827 8.53333 34 9.0112 34 9.60001C34 10.1888 33.6827 10.6667 33.2917 10.6667Z" fill="#6A6A6A"/>
<path d="M6.66678 16C6.29872 16 6 15.5819 6 15.0666C6 11.7738 8.81916 8.83741 8.93918 8.7142C9.23657 8.40806 9.65398 8.5014 9.87001 8.91207C10.0887 9.32649 10.0247 9.91077 9.72866 10.2169C9.0632 10.9057 7.33357 13.1178 7.33357 15.0666C7.33357 15.5819 7.03485 16 6.66678 16Z" fill="#6A6A6A"/>
<path d="M12.1667 16C11.7067 16 11.3333 15.5818 11.3333 15.0666C11.3333 13.1101 9.17164 10.9034 8.33996 10.2183C7.96829 9.91397 7.88996 9.32963 8.16163 8.91332C8.4383 8.497 8.95997 8.41113 9.32664 8.71356C9.47664 8.83678 13 11.7734 13 15.0666C13 15.5818 12.6267 16 12.1667 16Z" fill="#6A6A6A"/>
</svg>
