<svg width="22" height="22" viewBox="0 0 22 22" fill="none" xmlns="http://www.w3.org/2000/svg">
<path d="M6 1H4C2.34315 1 1 2.34315 1 4V6.88235M16 1H18C19.6569 1 21 2.34315 21 4V6.88235M21 13.9412V18C21 19.6569 19.6569 21 18 21H16M6 21H4C2.34315 21 1 19.6569 1 18V13.9412" stroke="#6A6A6A" stroke-width="2" stroke-linecap="round" stroke-linejoin="round"/>
<path d="M9 7H13C14.1046 7 15 7.89543 15 9V13C15 14.1046 14.1046 15 13 15H9C7.89543 15 7 14.1046 7 13V9C7 7.89543 7.89543 7 9 7Z" stroke="#6A6A6A" stroke-width="2" stroke-linecap="round" stroke-linejoin="round"/>
</svg>
